<?xml version="1.0" encoding="UTF-8" standalone="no"?>
<!DOCTYPE svg PUBLIC "-//W3C//DTD SVG 1.1//EN" "http://www.w3.org/Graphics/SVG/1.1/DTD/svg11.dtd">
<svg xmlns="http://www.w3.org/2000/svg" version="1.1" viewBox="0.00 0.00 600.00 600.00">
<circle fill="#004aad" cx="332.31" cy="75.48" r="26.11"/>
<path fill="#004aad" d="
  M 357.82 265.50
  C 357.06 273.60 360.97 280.40 367.57 284.98
  A 0.43 0.43 0.0 0 1 367.40 285.75
  Q 366.81 285.85 366.22 285.85
  Q 331.47 285.90 296.93 285.85
  Q 295.90 285.85 296.66 285.16
  C 299.65 282.42 302.66 279.92 304.53 276.22
  Q 308.49 268.34 306.76 258.36
  C 306.51 256.90 305.89 256.12 304.65 255.36
  Q 282.76 241.96 263.80 224.86
  A 0.86 0.85 31.4 0 0 262.42 225.19
  Q 262.06 226.17 262.03 227.20
  Q 261.64 241.08 262.20 259.95
  Q 262.55 271.76 271.84 277.64
  Q 274.69 279.44 271.36 279.92
  Q 243.44 283.93 217.92 287.65
  Q 215.86 287.95 214.11 287.15
  Q 211.17 285.79 211.17 282.19
  Q 211.15 235.34 211.18 186.47
  Q 211.18 184.60 209.54 183.84
  A 1.50 1.47 -87.7 0 1 208.77 182.99
  C 208.38 181.88 208.07 180.93 207.02 180.22
  Q 197.89 174.04 187.57 171.15
  A 1.66 1.65 21.1 0 0 185.63 172.01
  C 180.51 182.43 172.93 189.37 161.41 190.68
  Q 156.05 191.29 150.75 189.37
  C 141.29 185.94 135.49 177.35 134.10 167.53
  A 2.20 2.20 0.0 0 0 131.45 165.70
  Q 95.62 173.63 71.26 198.40
  C 47.50 222.56 36.35 256.73 40.97 290.23
  C 43.53 308.77 50.28 326.21 61.28 341.13
  Q 84.03 371.97 121.51 381.83
  Q 131.23 384.39 141.18 385.11
  Q 175.95 387.63 205.16 370.43
  Q 225.44 358.48 240.88 337.23
  C 241.94 335.76 243.08 334.61 243.36 332.73
  A 0.69 0.69 0.0 0 0 242.55 331.95
  Q 240.46 332.37 238.55 333.03
  C 235.35 334.12 231.24 334.19 227.99 333.58
  C 220.64 332.20 215.10 325.35 213.24 318.44
  C 209.83 305.75 216.63 295.10 229.64 292.48
  C 242.67 289.85 253.96 300.34 253.77 313.12
  Q 253.69 318.35 249.44 327.14
  Q 242.51 341.48 230.80 353.21
  C 212.44 371.58 188.85 384.16 163.17 387.37
  Q 130.25 391.49 99.24 376.07
  Q 60.21 356.67 44.75 315.48
  Q 38.65 299.23 37.42 281.75
  Q 36.10 262.86 42.23 244.99
  C 46.48 232.61 52.11 219.89 59.29 209.40
  C 75.99 185.00 101.76 168.90 131.28 163.75
  Q 132.61 163.52 133.61 162.61
  Q 133.99 162.27 134.09 161.77
  Q 136.09 151.58 142.33 143.74
  C 151.92 131.69 166.31 123.51 181.20 119.44
  Q 183.26 118.88 181.43 119.99
  C 173.37 124.87 168.86 131.16 173.89 140.14
  Q 175.58 143.15 178.01 145.62
  C 183.15 150.86 186.20 157.26 185.97 164.72
  Q 185.90 167.00 188.05 168.01
  Q 198.80 173.11 210.45 178.61
  C 212.32 179.49 214.25 180.45 216.41 179.73
  C 228.01 175.86 239.77 171.00 248.77 163.46
  C 254.01 159.06 259.37 151.43 256.91 144.32
  Q 256.26 142.45 256.05 140.44
  Q 255.97 139.60 256.48 140.27
  C 260.46 145.48 261.82 150.46 261.86 157.25
  Q 262.07 188.25 261.81 217.57
  C 261.79 218.98 262.88 220.81 263.94 221.77
  Q 281.90 238.16 301.66 250.60
  Q 303.28 251.61 304.97 252.43
  A 1.36 1.36 0.0 0 0 306.92 251.20
  Q 307.09 205.45 306.96 158.00
  Q 306.94 151.05 306.63 145.06
  Q 306.10 135.10 296.59 129.74
  Q 295.45 129.10 296.51 128.32
  Q 297.28 127.76 298.22 127.63
  Q 323.39 123.97 351.60 119.88
  C 355.80 119.27 357.56 122.72 357.57 126.32
  Q 357.66 195.17 357.62 260.98
  A 0.65 0.64 3.0 0 0 358.20 261.62
  Q 359.07 261.72 359.91 261.40
  Q 378.74 254.46 388.53 238.53
  C 396.78 225.12 398.66 208.40 394.13 193.47
  Q 387.44 171.40 365.67 158.98
  Q 364.44 158.28 365.54 157.39
  L 365.83 157.16
  Q 366.30 156.77 366.83 157.07
  Q 376.60 162.57 384.35 170.71
  C 397.92 184.95 401.28 203.01 397.42 221.81
  Q 392.20 247.26 369.16 259.67
  Q 364.31 262.28 358.49 264.60
  A 1.09 1.08 -8.7 0 0 357.82 265.50
  Z"
/>
<path fill="#004aad" d="
  M 201.00 274.80
  C 202.50 275.22 203.82 275.15 205.29 275.33
  Q 207.52 275.61 205.63 276.82
  C 194.65 283.89 180.77 287.45 168.17 287.42
  Q 162.59 287.41 157.41 286.22
  Q 131.75 280.36 124.68 255.84
  Q 123.23 250.81 123.64 243.80
  Q 124.35 231.71 132.32 221.02
  C 139.42 211.51 147.72 205.94 159.09 200.81
  Q 180.79 191.01 203.03 184.45
  Q 205.52 183.71 207.90 184.08
  Q 209.44 184.32 208.08 185.09
  C 201.98 188.54 195.00 192.08 190.19 196.41
  Q 177.30 208.02 174.98 225.88
  Q 172.83 242.37 178.86 257.16
  Q 184.19 270.25 198.23 274.04
  Q 199.61 274.41 201.00 274.80
  Z"
/>
<path fill="#004aad" d="
  M 313.92 318.94
  Q 312.22 322.81 311.63 326.10
  Q 311.51 326.74 310.87 326.85
  Q 307.51 327.43 305.26 324.80
  C 304.08 323.43 304.02 321.68 303.40 320.04
  Q 302.97 318.90 301.85 319.39
  Q 301.32 319.62 301.10 320.19
  Q 300.61 321.44 301.01 322.71
  L 301.41 323.96
  Q 302.00 325.82 300.34 326.84
  Q 299.39 327.42 298.30 327.16
  Q 297.09 326.86 297.17 325.62
  Q 297.73 317.17 298.51 308.76
  Q 298.67 307.08 299.44 305.47
  A 0.78 0.78 0.0 0 1 300.68 305.25
  Q 301.92 306.44 302.63 307.95
  Q 304.86 312.71 306.89 317.59
  Q 307.25 318.45 308.04 318.91
  Q 309.27 319.61 309.76 318.29
  Q 311.76 312.94 313.89 307.98
  Q 314.78 305.88 316.54 304.30
  Q 316.98 303.90 317.23 304.43
  Q 318.30 306.69 318.42 309.01
  Q 318.83 317.12 319.73 326.55
  Q 319.84 327.70 318.68 327.72
  L 317.18 327.73
  Q 316.13 327.75 316.19 326.70
  Q 316.37 323.19 315.32 319.13
  Q 315.20 318.71 314.76 318.71
  L 314.26 318.71
  Q 314.02 318.71 313.92 318.94
  Z"
/>
<path fill="#004aad" d="
  M 370.07 310.00
  Q 371.84 313.83 373.53 309.96
  Q 375.40 305.64 380.70 304.95
  A 0.45 0.45 0.0 0 1 381.19 305.52
  Q 380.64 307.40 379.29 308.89
  C 375.68 312.86 372.54 318.92 374.30 324.10
  A 2.76 2.76 0.0 0 1 372.91 327.46
  Q 370.85 328.47 369.54 326.67
  Q 369.20 326.20 369.31 325.63
  Q 371.48 315.15 363.35 307.41
  Q 362.19 306.30 363.39 305.24
  L 364.09 304.62
  Q 364.95 303.86 365.82 304.60
  Q 368.72 307.08 370.07 310.00
  Z"
/>
<path fill="#004aad" d="
  M 405.16 323.75
  C 401.17 323.33 398.34 325.42 395.27 327.47
  A 0.67 0.66 -26.9 0 1 394.28 327.15
  Q 393.89 326.12 394.26 325.01
  Q 397.34 315.71 400.75 306.08
  Q 401.88 302.87 404.29 305.27
  Q 404.59 305.57 405.32 307.43
  Q 408.97 316.72 412.58 326.21
  A 0.93 0.92 -16.6 0 1 411.91 327.44
  C 409.08 328.07 408.16 324.07 405.16 323.75
  Z
  M 405.59 317.18
  A 2.80 2.80 0.0 0 0 402.79 314.38
  A 2.80 2.80 0.0 0 0 399.99 317.18
  A 2.80 2.80 0.0 0 0 402.79 319.98
  A 2.80 2.80 0.0 0 0 405.59 317.18
  Z"
/>
<path fill="#004aad" d="
  M 340.33 324.24
  C 342.71 324.18 347.30 323.61 349.23 325.32
  A 1.12 1.12 0.0 0 1 348.73 327.25
  Q 343.07 328.51 337.11 327.67
  A 2.19 2.19 0.0 0 1 335.22 325.51
  Q 335.20 316.13 335.44 307.40
  Q 335.52 304.76 338.13 304.49
  Q 343.82 303.90 349.32 306.00
  A 0.99 0.99 0.0 0 1 349.58 307.70
  Q 346.94 309.78 343.42 308.31
  C 339.77 306.78 338.57 311.40 339.64 313.89
  Q 339.79 314.26 340.18 314.34
  C 343.21 315.05 345.30 313.56 347.72 316.59
  Q 348.12 317.09 347.54 317.38
  Q 344.35 318.96 340.97 318.78
  Q 339.56 318.71 339.23 320.07
  Q 338.83 321.72 339.35 323.53
  Q 339.56 324.26 340.33 324.24
  Z"
/>
<path fill="#004aad" d="
  M 281.86 326.96
  Q 280.80 326.76 280.04 326.04
  Q 276.23 322.45 271.40 324.17
  C 269.54 324.83 267.91 326.53 266.27 327.65
  A 0.97 0.97 0.0 0 1 264.76 326.77
  Q 264.87 325.61 265.31 324.33
  Q 268.14 316.16 271.56 307.38
  Q 271.88 306.56 272.35 305.65
  Q 272.58 305.21 273.05 305.03
  Q 274.86 304.36 275.77 306.51
  Q 279.82 316.17 283.64 325.99
  A 1.02 1.02 0.0 0 1 283.18 327.25
  Q 282.57 327.59 282.33 327.26
  Q 282.15 327.02 281.86 326.96
  Z
  M 272.33 320.24
  L 275.53 320.37
  A 1.31 1.31 0.0 0 0 276.89 319.12
  L 276.92 318.38
  A 4.27 2.86 -87.7 0 0 274.24 313.99
  L 274.14 313.99
  A 4.27 2.86 -87.7 0 0 271.11 318.14
  L 271.08 318.88
  A 1.31 1.31 0.0 0 0 272.33 320.24
  Z"
/>
<path fill="#004aad" d="
  M 365.9577 370.3895
  A 12.87 9.46 90.5 0 1 356.6104 357.4374
  A 12.87 9.46 90.5 0 1 366.1823 344.6505
  A 12.87 9.46 90.5 0 1 375.5296 357.6026
  A 12.87 9.46 90.5 0 1 365.9577 370.3895
  Z
  M 366.0444 366.4195
  A 9.01 5.83 89.4 0 0 371.7797 357.3489
  A 9.01 5.83 89.4 0 0 365.8556 348.4005
  A 9.01 5.83 89.4 0 0 360.1203 357.4711
  A 9.01 5.83 89.4 0 0 366.0444 366.4195
  Z"
/>
<path fill="#004aad" d="
  M 292.55 358.05
  L 291.75 368.97
  Q 291.67 370.17 290.48 370.35
  Q 290.09 370.41 289.69 370.21
  Q 288.19 369.47 288.19 367.80
  L 288.19 347.06
  A 2.02 2.00 69.9 0 1 288.89 345.53
  Q 290.02 344.55 291.00 345.57
  Q 294.68 349.36 297.28 354.81
  Q 298.72 357.81 301.63 357.81
  Q 302.38 357.81 302.22 357.08
  Q 301.00 351.37 302.25 346.34
  A 1.60 1.60 0.0 0 1 304.41 345.25
  Q 305.61 345.74 305.60 346.97
  Q 305.52 356.75 305.35 367.70
  C 305.32 370.15 302.93 370.68 301.48 368.94
  Q 297.79 364.52 295.23 358.79
  Q 294.69 357.57 293.37 357.38
  Q 292.60 357.27 292.55 358.05
  Z"
/>
<path fill="#004aad" d="
  M 336.17 357.96
  L 336.63 347.12
  Q 336.69 345.55 338.24 345.27
  Q 338.50 345.22 338.75 345.26
  Q 340.53 345.49 340.61 347.28
  Q 341.12 358.73 339.47 369.42
  A 1.30 1.30 0.0 0 1 337.49 370.32
  Q 336.73 369.84 336.20 369.01
  Q 332.51 363.21 329.01 357.51
  Q 328.57 356.80 327.71 357.08
  A 0.56 0.56 0.0 0 0 327.33 357.58
  L 326.62 369.09
  Q 326.54 370.32 325.36 370.62
  Q 325.11 370.69 324.86 370.62
  Q 323.21 370.22 323.21 368.53
  L 323.12 348.32
  Q 323.10 342.54 327.04 346.76
  Q 330.60 350.58 333.89 357.88
  Q 334.08 358.30 334.53 358.36
  L 335.53 358.50
  Q 336.14 358.58 336.17 357.96
  Z"
/>
<path fill="#004aad" d="
  M 398.56 359.55
  A 1.31 1.31 0.0 0 0 401.08 359.30
  Q 401.89 354.43 403.36 350.96
  Q 404.82 347.52 407.91 345.15
  A 0.55 0.54 -19.4 0 1 408.79 345.57
  Q 408.84 347.42 408.19 349.62
  Q 405.62 358.30 402.72 366.84
  Q 402.07 368.76 400.65 370.33
  A 1.24 1.24 0.0 0 1 398.85 370.37
  Q 397.21 368.70 396.41 366.39
  Q 393.33 357.50 390.10 347.89
  Q 389.43 345.89 391.44 345.27
  L 391.69 345.19
  Q 392.87 344.83 393.32 345.98
  L 398.56 359.55
  Z"
/>
<path fill="#004aad" d="
  M 462.71 362.32
  Q 461.38 367.09 456.52 370.48
  A 0.73 0.73 0.0 0 1 455.37 369.93
  Q 455.13 366.52 457.10 364.01
  C 459.35 361.14 461.37 358.52 459.24 354.72
  Q 457.22 351.11 454.72 347.26
  Q 453.71 345.71 455.53 345.31
  Q 455.75 345.26 455.97 345.21
  Q 457.56 344.87 458.52 346.17
  L 463.10 352.36
  A 1.51 1.51 0.0 0 0 465.67 352.12
  Q 467.82 347.72 471.51 345.06
  A 0.79 0.79 0.0 0 1 472.76 345.67
  Q 472.87 349.00 470.60 351.79
  C 468.52 354.36 466.55 357.27 468.83 360.54
  C 470.92 363.55 472.85 366.23 472.78 370.08
  A 0.71 0.70 -70.2 0 1 471.64 370.62
  Q 467.48 367.31 465.19 362.01
  Q 464.99 361.56 464.50 361.61
  L 463.42 361.72
  Q 462.86 361.78 462.71 362.32
  Z"
/>
<rect fill="#004aad" x="-2.19" y="-12.57" transform="translate(268.70,357.75) rotate(0.6)" width="4.38" height="25.14" rx="2.13"/>
<path fill="#004aad" d="
  M 428.36 361.27
  C 427.74 363.00 427.52 365.54 430.09 365.73
  Q 434.08 366.02 437.34 366.22
  Q 438.97 366.32 439.60 367.98
  Q 439.69 368.23 439.55 368.49
  Q 438.72 369.92 437.29 369.89
  Q 432.56 369.81 427.48 369.80
  A 3.09 3.09 0.0 0 1 424.40 366.68
  L 424.59 348.19
  A 2.76 2.76 0.0 0 1 427.30 345.46
  L 438.05 345.23
  Q 439.66 345.19 439.74 346.80
  L 439.81 348.30
  Q 439.87 349.72 438.45 349.73
  L 429.93 349.79
  A 2.10 2.10 0.0 0 0 427.96 352.57
  L 428.71 354.73
  Q 428.92 355.36 429.56 355.56
  Q 431.55 356.20 433.60 356.11
  A 3.72 3.68 68.8 0 1 436.58 357.44
  L 437.13 358.09
  Q 438.19 359.35 436.55 359.52
  Q 432.68 359.91 429.03 360.68
  Q 428.53 360.79 428.36 361.27
  Z"
/>
<path fill="#004aad" d="
  M 110.1704 438.2723
  A 11.45 11.26 92.1 0 1 99.3376 426.4174
  A 11.45 11.26 92.1 0 1 111.0096 415.3877
  A 11.45 11.26 92.1 0 1 121.8424 427.2426
  A 11.45 11.26 92.1 0 1 110.1704 438.2723
  Z
  M 110.5857 435.8000
  A 8.98 8.33 89.9 0 0 118.9000 426.8055
  A 8.98 8.33 89.9 0 0 110.5543 417.8400
  A 8.98 8.33 89.9 0 0 102.2400 426.8345
  A 8.98 8.33 89.9 0 0 110.5857 435.8000
  Z"
/>
<path fill="#004aad" d="
  M 168.81 428.25
  L 162.27 428.25
  A 0.76 0.76 0.0 0 1 161.51 427.51
  L 161.50 426.51
  Q 161.49 426.00 161.99 426.00
  L 172.95 426.00
  A 0.57 0.57 0.0 0 1 173.52 426.56
  C 173.92 441.21 152.77 442.19 151.50 428.16
  Q 151.09 423.72 153.00 420.83
  C 157.93 413.34 168.86 413.49 172.82 422.01
  A 0.16 0.16 0.0 0 1 172.68 422.23
  L 169.74 422.27
  Q 169.46 422.27 169.33 422.03
  C 165.97 415.49 156.10 417.31 154.60 424.39
  C 153.18 431.08 157.50 436.62 164.62 435.36
  Q 167.17 434.91 168.58 432.74
  Q 169.28 431.66 170.03 430.50
  Q 171.49 428.25 168.81 428.25
  Z"
/>
<path fill="#004aad" d="
  M 342.20 435.78
  C 346.62 435.38 347.59 429.97 343.14 428.57
  C 340.73 427.81 337.67 427.37 335.74 425.76
  C 332.76 423.25 333.60 418.08 337.13 416.39
  C 341.29 414.40 347.62 415.32 348.67 420.71
  Q 348.77 421.26 348.21 421.26
  L 346.21 421.25
  A 0.75 0.74 78.8 0 1 345.52 420.78
  C 343.56 415.85 334.84 417.76 337.26 422.95
  C 338.50 425.60 344.64 425.57 347.07 427.73
  C 350.46 430.74 349.07 436.13 344.93 437.60
  C 340.49 439.19 334.74 437.82 333.80 432.52
  Q 333.71 432.01 334.23 432.00
  L 336.27 432.00
  Q 336.80 431.99 336.97 432.51
  Q 338.13 436.15 342.20 435.78
  Z"
/>
<path fill="#004aad" d="
  M 438.37 418.05
  C 428.64 419.28 428.95 434.98 439.11 435.65
  Q 443.87 435.96 446.30 431.76
  A 0.50 0.50 0.0 0 1 446.75 431.51
  L 449.54 431.52
  Q 449.82 431.53 449.71 431.79
  C 445.56 441.84 429.89 439.55 428.56 428.74
  C 427.56 420.61 432.99 414.61 441.46 415.62
  Q 447.26 416.31 449.73 421.80
  Q 449.93 422.24 449.45 422.24
  L 446.96 422.26
  Q 446.46 422.27 446.22 421.83
  Q 443.75 417.37 438.37 418.05
  Z"
/>
<path fill="#004aad" d="
  M 128.47 429.76
  L 128.48 437.50
  Q 128.48 437.99 128.00 437.99
  L 126.01 438.00
  Q 125.52 438.00 125.52 437.51
  L 125.53 416.29
  Q 125.53 415.81 126.01 415.79
  Q 130.80 415.60 134.13 415.86
  C 141.86 416.45 142.73 426.52 135.45 428.58
  A 0.26 0.26 0.0 0 0 135.29 428.96
  L 140.52 437.77
  A 0.13 0.13 0.0 0 1 140.42 437.97
  Q 138.10 438.14 137.14 437.80
  Q 137.08 437.78 137.05 437.72
  L 132.25 429.46
  Q 131.98 429.00 131.45 429.00
  L 129.24 428.99
  Q 128.46 428.99 128.47 429.76
  Z
  M 128.44 418.37
  L 128.48 426.21
  A 0.34 0.34 0.0 0 0 128.82 426.55
  L 133.18 426.53
  A 4.32 4.07 -0.3 0 0 137.48 422.44
  L 137.48 422.06
  A 4.32 4.07 -0.3 0 0 133.14 418.01
  L 128.78 418.03
  A 0.34 0.34 0.0 0 0 128.44 418.37
  Z"
/>
<rect fill="#004aad" x="145.52" y="415.75" width="2.96" height="22.24" rx="0.37"/>
<rect fill="#004aad" x="177.52" y="415.75" width="2.96" height="22.24" rx="0.36"/>
<path fill="#004aad" d="
  M 200.31 415.74
  L 202.66 415.75
  A 0.34 0.34 0.0 0 1 203.00 416.09
  L 203.00 437.66
  A 0.34 0.34 0.0 0 1 202.66 438.00
  L 200.25 437.99
  A 0.34 0.34 0.0 0 1 199.97 437.84
  L 189.01 421.12
  A 0.34 0.34 0.0 0 0 188.39 421.31
  L 188.52 437.63
  A 0.34 0.34 0.0 0 1 188.18 437.97
  L 185.86 437.99
  A 0.34 0.34 0.0 0 1 185.52 437.65
  L 185.53 416.08
  A 0.34 0.34 0.0 0 1 185.87 415.74
  L 188.30 415.76
  A 0.34 0.34 0.0 0 1 188.58 415.91
  L 199.43 432.57
  A 0.34 0.34 0.0 0 0 200.05 432.38
  L 199.97 416.08
  A 0.34 0.34 0.0 0 1 200.31 415.74
  Z"
/>
<path fill="#004aad" d="
  M 211.84 433.23
  L 210.22 437.76
  A 0.34 0.34 0.0 0 1 209.90 437.98
  L 207.53 438.01
  A 0.34 0.34 0.0 0 1 207.21 437.56
  L 215.09 415.95
  A 0.34 0.34 0.0 0 1 215.41 415.73
  L 218.19 415.75
  A 0.34 0.34 0.0 0 1 218.51 415.97
  L 226.37 437.61
  A 0.34 0.34 0.0 0 1 226.03 438.06
  L 223.65 437.90
  A 0.34 0.34 0.0 0 1 223.35 437.68
  L 221.72 433.22
  A 0.34 0.34 0.0 0 0 221.40 433.00
  L 212.16 433.00
  A 0.34 0.34 0.0 0 0 211.84 433.23
  Z
  M 212.85 430.31
  A 0.32 0.32 0.0 0 0 213.15 430.74
  L 220.41 430.74
  A 0.32 0.32 0.0 0 0 220.71 430.31
  L 217.08 420.23
  A 0.32 0.32 0.0 0 0 216.48 420.23
  L 212.85 430.31
  Z"
/>
<path fill="#004aad" d="
  M 232.82 435.75
  L 239.91 435.74
  A 0.35 0.35 0.0 0 1 240.26 436.09
  L 240.25 437.65
  A 0.35 0.35 0.0 0 1 239.90 438.00
  L 229.88 438.00
  A 0.35 0.35 0.0 0 1 229.53 437.65
  L 229.52 416.09
  A 0.35 0.35 0.0 0 1 229.87 415.74
  L 232.13 415.75
  A 0.35 0.35 0.0 0 1 232.48 416.10
  L 232.47 435.40
  A 0.35 0.35 0.0 0 0 232.82 435.75
  Z"
/>
<rect fill="#004aad" x="243.53" y="415.75" width="2.94" height="22.24" rx="0.36"/>
<path fill="#004aad" d="
  M 259.00 418.34
  L 259.00 437.67
  A 0.35 0.35 0.0 0 1 258.64 438.02
  L 256.59 437.95
  A 0.35 0.35 0.0 0 1 256.25 437.60
  L 256.26 418.35
  A 0.35 0.35 0.0 0 0 255.91 418.00
  L 250.35 418.00
  A 0.35 0.35 0.0 0 1 250.00 417.65
  L 250.01 416.10
  A 0.35 0.35 0.0 0 1 250.36 415.75
  L 264.90 415.75
  A 0.35 0.35 0.0 0 1 265.25 416.10
  L 265.27 417.65
  A 0.35 0.35 0.0 0 1 264.92 418.00
  L 259.35 417.99
  A 0.35 0.35 0.0 0 0 259.00 418.34
  Z"
/>
<path fill="#004aad" d="
  M 275.73 426.23
  L 280.74 416.03
  Q 280.88 415.74 281.21 415.74
  L 283.71 415.74
  A 0.16 0.15 14.2 0 1 283.85 415.96
  Q 280.98 421.79 277.67 427.78
  C 276.11 430.60 276.80 434.33 276.74 437.47
  Q 276.73 437.97 276.24 437.98
  L 274.48 438.01
  Q 274.02 438.02 274.01 437.56
  Q 273.94 434.76 274.05 431.65
  Q 274.12 429.80 273.22 428.16
  Q 269.88 422.02 266.91 416.22
  Q 266.67 415.75 267.20 415.75
  L 269.44 415.74
  Q 269.87 415.74 270.06 416.13
  L 274.93 426.23
  Q 275.33 427.05 275.73 426.23
  Z"
/>
<rect fill="#004aad" x="296.52" y="415.75" width="2.96" height="22.24" rx="0.37"/>
<path fill="#004aad" d="
  M 306.39 421.30
  L 306.52 437.64
  A 0.34 0.34 0.0 0 1 306.18 437.98
  L 303.87 437.99
  A 0.34 0.34 0.0 0 1 303.53 437.65
  L 303.53 416.08
  A 0.34 0.34 0.0 0 1 303.87 415.74
  L 306.29 415.75
  A 0.34 0.34 0.0 0 1 306.57 415.90
  L 317.42 432.55
  A 0.34 0.34 0.0 0 0 318.05 432.37
  L 317.98 416.08
  A 0.34 0.34 0.0 0 1 318.32 415.74
  L 320.66 415.75
  A 0.34 0.34 0.0 0 1 321.00 416.09
  L 321.00 437.66
  A 0.34 0.34 0.0 0 1 320.66 438.00
  L 318.26 437.99
  A 0.34 0.34 0.0 0 1 317.98 437.84
  L 307.01 421.12
  A 0.34 0.34 0.0 0 0 306.39 421.30
  Z"
/>
<rect fill="#004aad" x="353.52" y="415.75" width="2.96" height="22.24" rx="0.36"/>
<path fill="#004aad" d="
  M 364.45 423.06
  L 364.49 437.50
  Q 364.49 437.99 364.00 437.99
  L 362.01 438.00
  Q 361.52 438.00 361.52 437.51
  L 361.53 416.36
  Q 361.53 415.74 362.14 415.75
  L 364.00 415.75
  Q 364.54 415.75 364.76 416.24
  L 372.57 433.73
  A 0.24 0.24 0.0 0 0 373.01 433.73
  L 380.85 416.19
  Q 381.06 415.73 381.57 415.73
  L 383.50 415.75
  Q 384.00 415.75 384.00 416.25
  L 384.00 437.51
  Q 384.00 438.02 383.49 438.01
  L 381.73 437.98
  Q 381.25 437.97 381.25 437.49
  L 381.26 422.04
  A 0.16 0.16 0.0 0 0 380.95 421.97
  L 374.14 437.21
  A 1.48 1.48 0.0 0 1 371.43 437.21
  L 365.05 422.93
  Q 364.45 421.58 364.45 423.06
  Z"
/>
<path fill="#004aad" d="
  M 392.47 429.31
  L 392.48 437.51
  Q 392.48 437.99 391.99 437.99
  L 390.01 438.00
  Q 389.52 438.00 389.52 437.51
  L 389.53 416.28
  Q 389.53 415.75 390.06 415.74
  Q 394.03 415.71 397.72 415.78
  C 405.52 415.94 406.75 426.39 399.87 428.23
  Q 396.81 429.05 393.21 428.65
  Q 392.47 428.57 392.47 429.31
  Z
  M 392.45 418.34
  L 392.49 426.00
  A 0.29 0.29 0.0 0 0 392.78 426.29
  L 397.43 426.27
  A 4.08 4.00 -0.3 0 0 401.49 422.25
  L 401.49 422.01
  A 4.08 4.00 -0.3 0 0 397.39 418.03
  L 392.74 418.05
  A 0.29 0.29 0.0 0 0 392.45 418.34
  Z"
/>
<path fill="#004aad" d="
  M 410.82 435.75
  L 417.91 435.74
  A 0.35 0.35 0.0 0 1 418.26 436.09
  L 418.25 437.65
  A 0.35 0.35 0.0 0 1 417.90 438.00
  L 407.87 438.00
  A 0.35 0.35 0.0 0 1 407.52 437.65
  L 407.52 416.09
  A 0.35 0.35 0.0 0 1 407.87 415.74
  L 410.13 415.75
  A 0.35 0.35 0.0 0 1 410.48 416.10
  L 410.47 435.40
  A 0.35 0.35 0.0 0 0 410.82 435.75
  Z"
/>
<rect fill="#004aad" x="421.52" y="415.75" width="2.96" height="22.24" rx="0.36"/>
<rect fill="#004aad" x="454.52" y="415.75" width="2.96" height="22.24" rx="0.37"/>
<path fill="#004aad" d="
  M 465.91 417.99
  L 460.35 418.00
  A 0.35 0.35 0.0 0 1 460.00 417.65
  L 460.01 416.10
  A 0.35 0.35 0.0 0 1 460.36 415.75
  L 474.91 415.75
  A 0.35 0.35 0.0 0 1 475.26 416.10
  L 475.25 417.65
  A 0.35 0.35 0.0 0 1 474.90 418.00
  L 469.35 417.99
  A 0.35 0.35 0.0 0 0 469.00 418.34
  L 469.00 437.67
  A 0.35 0.35 0.0 0 1 468.64 438.02
  L 466.59 437.94
  A 0.35 0.35 0.0 0 1 466.25 437.59
  L 466.26 418.34
  A 0.35 0.35 0.0 0 0 465.91 417.99
  Z"
/>
<path fill="#004aad" d="
  M 486.66 426.42
  L 491.72 416.04
  Q 491.87 415.74 492.20 415.74
  L 494.71 415.74
  A 0.15 0.15 0.0 0 1 494.84 415.96
  Q 491.91 421.82 488.52 428.14
  C 487.13 430.74 487.80 434.53 487.73 437.53
  A 0.46 0.46 0.0 0 1 487.28 437.98
  L 485.49 438.01
  Q 485.03 438.01 485.01 437.55
  C 484.92 434.77 485.61 430.78 484.29 428.32
  Q 480.87 421.95 477.92 416.25
  Q 477.66 415.76 478.22 415.75
  L 480.23 415.74
  A 1.00 0.99 76.4 0 1 481.14 416.30
  L 486.03 426.42
  A 0.35 0.35 0.0 0 0 486.66 426.42
  Z"
/>
</svg>
